<?xml version="1.0" encoding="UTF-8" standalone="no"?>
<svg
   xmlns:dc="http://purl.org/dc/elements/1.1/"
   xmlns:cc="http://creativecommons.org/ns#"
   xmlns:rdf="http://www.w3.org/1999/02/22-rdf-syntax-ns#"
   xmlns:svg="http://www.w3.org/2000/svg"
   xmlns="http://www.w3.org/2000/svg"
   xmlns:sodipodi="http://sodipodi.sourceforge.net/DTD/sodipodi-0.dtd"
   xmlns:inkscape="http://www.inkscape.org/namespaces/inkscape"
   width="210mm"
   height="36mm"
   viewBox="0 0 210 36"
   version="1.1"
   id="svg8"
   inkscape:version="1.0.1 (3bc2e813f5, 2020-09-07)"
   sodipodi:docname="logo.svg">
  <defs
     id="defs2" />
  <sodipodi:namedview
     id="base"
     pagecolor="#ffffff"
     bordercolor="#666666"
     borderopacity="1.0"
     inkscape:pageopacity="0.0"
     inkscape:pageshadow="2"
     inkscape:zoom="0.98994949"
     inkscape:cx="459.40579"
     inkscape:cy="114.86834"
     inkscape:document-units="mm"
     inkscape:current-layer="layer1"
     inkscape:document-rotation="0"
     showgrid="false"
     inkscape:window-width="1920"
     inkscape:window-height="1017"
     inkscape:window-x="1912"
     inkscape:window-y="-8"
     inkscape:window-maximized="1" />
  <metadata
     id="metadata5">
    <rdf:RDF>
      <cc:Work
         rdf:about="">
        <dc:format>image/svg+xml</dc:format>
        <dc:type
           rdf:resource="http://purl.org/dc/dcmitype/StillImage" />
        <dc:title></dc:title>
      </cc:Work>
    </rdf:RDF>
  </metadata>
  <g
     inkscape:label="Layer 1"
     inkscape:groupmode="layer"
     id="layer1">
    <circle
       style="fill:#005eb8;fill-opacity:1;stroke-width:0.138408"
       id="path837"
       cx="16.872124"
       cy="17.337883"
       r="13.224649" />
    <path
       style="fill:#000000;fill-opacity:1;stroke-width:0.269966"
       d="m 143.41855,99.662622 c 4.2e-4,-0.294643 2.56892,-10.178571 5.70778,-21.964286 5.98725,-22.480766 6.55702,-26.376684 4.6486,-31.785714 -0.58928,-1.670214 -1.07143,-3.317769 -1.07143,-3.661233 0,-0.343465 6.92669,-0.624481 15.39264,-0.624481 h 15.39263 l -0.21406,17.500653 c -0.11774,9.62536 -0.025,17.50036 0.20606,17.5 0.54722,-8.57e-4 5.82877,-9.922415 12.00124,-22.544729 2.70143,-5.524241 5.45435,-10.586741 6.11761,-11.25 1.03338,-1.033376 2.8771,-1.205924 12.88563,-1.205924 h 11.6797 l -3.85927,14.821428 c -2.12261,8.151786 -5.57846,21.25 -7.67968,29.107143 l -3.8204,14.285715 -8.7556,0.201056 -8.75559,0.20105 0.48802,-2.343912 c 0.26842,-1.28915 2.08663,-8.383283 4.04047,-15.764741 1.95383,-7.381458 3.43494,-13.773312 3.29133,-14.20412 -0.28025,-0.840761 -8.32955,13.893561 -13.82321,25.303524 l -3.35316,6.964289 h -6.6886 -6.68861 l -0.0217,-16.607146 c -0.0129,-9.862891 -0.27601,-16.17203 -0.64789,-15.535715 -0.34439,0.589286 -1.95758,6.053572 -3.58488,12.142857 -1.62729,6.089286 -3.61195,13.080358 -4.41035,15.535715 l -1.45164,4.464289 H 151.931 c -4.68225,0 -8.51285,-0.241075 -8.51243,-0.535718 z"
       id="path875"
       transform="scale(0.26458333)" />
    <path
       style="fill:#000000;fill-opacity:1;stroke-width:0.269966"
       d="m 222.72585,99.305479 c 0.0123,-0.09821 3.4907,-13.035714 7.7298,-28.75 l 7.70747,-28.571428 9.05591,-0.199912 c 4.98074,-0.109952 9.05507,0.05076 9.05405,0.357142 -10e-4,0.306381 -1.25578,5.057055 -2.78834,10.557055 -3.99141,14.324198 -7.92409,29.340278 -7.92409,30.256366 0,0.538239 4.46189,0.846347 14.17517,0.978845 l 14.17518,0.193361 -1.79986,7.678571 -1.79985,7.678572 H 246.5074 c -13.09214,0 -23.79384,-0.08036 -23.78155,-0.178572 z"
       id="path877"
       transform="scale(0.26458333)" />
    <path
       style="fill:#000000;fill-opacity:1;stroke-width:0.269966"
       d="m 305.51294,87.162622 c 1.87848,-7.169643 4.66353,-17.766907 6.189,-23.549476 l 2.77358,-10.513762 -1.18649,-4.486238 c -0.65256,-2.467431 -1.40708,-5.048738 -1.67671,-5.736238 -0.45769,-1.167034 0.53414,-1.25 14.94334,-1.25 h 15.43356 l 0.0227,17.678571 c 0.0207,16.126349 0.12018,17.55314 1.13269,16.25 0.61048,-0.785714 4.49143,-8.178571 8.62433,-16.428571 4.1329,-8.25 8.0123,-15.5625 8.62088,-16.25 0.96874,-1.094361 2.56019,-1.25 12.78152,-1.25 6.42125,0 11.67501,0.239034 11.67501,0.531187 0,0.292153 -3.43728,13.470724 -7.63839,29.285714 l -7.63839,28.754531 h -8.83832 c -8.07659,0 -8.80769,-0.10773 -8.48304,-1.250004 0.55186,-1.941736 7.3783,-28.188839 7.81312,-30.040822 0.90836,-3.868889 -1.79823,0.598557 -9.43262,15.569317 l -8.01724,15.721509 h -6.72654 -6.72653 l -0.19174,-16.607146 -0.19174,-16.607143 -3.84424,13.928571 c -2.11434,7.660714 -4.18967,15.133929 -4.61186,16.607143 l -0.7676,2.678575 h -8.72686 -8.72686 z"
       id="path879"
       transform="scale(0.26458333)" />
    <path
       style="fill:#000000;fill-opacity:1;stroke-width:0.269966"
       d="m 384.211,88.591194 c 1.5555,-5.991072 4.26337,-16.070674 6.01749,-22.399116 3.48837,-12.585223 3.68296,-14.448523 2.11787,-20.279456 -0.57996,-2.160714 -1.05829,-4.184785 -1.06295,-4.497934 -0.005,-0.31315 11.48259,-0.473864 25.52724,-0.357143 24.22336,0.201313 25.66419,0.287294 28.03571,1.673005 1.7933,1.047852 2.77333,2.315497 3.46693,4.484396 0.91049,2.847107 0.79602,3.679153 -1.96106,14.2535 -1.6104,6.17644 -4.45623,17.248463 -6.32407,24.604496 l -3.39608,13.374606 -9.02667,0.01825 -9.02666,0.01825 2.75944,-10.892857 c 1.51769,-5.991072 2.76719,-11.303973 2.77666,-11.806447 0.0133,-0.706538 -2.12071,-0.86842 -9.41618,-0.714286 l -9.4334,0.199304 -2.86624,11.607143 -2.86625,11.607143 h -9.07498 -9.07498 z m 44.12199,-27.994872 c 0.4395,-1.745393 0.79909,-3.513251 0.79909,-3.928571 0,-0.491446 -3.203,-0.755129 -9.17266,-0.755129 h -9.17265 l -0.82735,2.761443 c -1.58096,5.27678 -1.87852,5.0957 8.37357,5.0957 h 9.20092 z"
       id="path881"
       transform="scale(0.26458333)" />
    <path
       style="fill:#000000;fill-opacity:1;stroke-width:0.269966"
       d="m 445.79698,98.305582 c 1.21714,-4.255113 9.86974,-37.832326 10.79394,-41.886868 1.08869,-4.77614 1.07824,-4.916445 -0.67654,-9.08562 -3.00678,-7.143796 -5.54933,-6.527167 25.89627,-6.280471 30.06428,0.235858 29.93333,0.218287 32.04401,4.299883 1.73882,3.362522 0.98415,8.700747 -3.66398,25.917259 -4.76848,17.662314 -5.12919,18.609987 -8.50598,22.347694 -4.92121,5.447187 -4.905,5.444286 -32.08775,5.743508 -23.25283,0.255963 -24.16351,0.215579 -23.79997,-1.055385 z m 43.3351,-14.834052 c 0,-0.164029 1.44427,-5.869386 3.20949,-12.678571 1.76523,-6.809185 3.21165,-12.782123 3.21429,-13.273194 0.004,-0.673455 -2.54028,-0.892857 -10.35236,-0.892857 -5.69642,0 -10.35714,0.190613 -10.35714,0.423585 0,0.365569 -5.82799,21.981894 -6.86678,25.469272 -0.34305,1.151644 0.4745,1.25 10.39008,1.25 5.91933,0 10.76242,-0.134206 10.76242,-0.298235 z"
       id="path883"
       transform="scale(0.26458333)" />
    <path
       style="fill:#000000;fill-opacity:1;stroke-width:0.269966"
       d="m 511.98922,99.050514 c 0,-0.238445 1.56197,-5.943802 3.47104,-12.678571 1.90907,-6.734769 4.71496,-17.111553 6.23532,-23.059519 2.99023,-11.69845 2.95506,-10.238084 0.50081,-20.792659 l -0.37371,-1.607143 h 14.57423 14.57424 l 2.38647,7.321429 c 4.19449,12.868199 6.64954,19.234021 7.1836,18.626725 0.45076,-0.512576 7.16228,-24.446134 7.16228,-25.540991 0,-0.22394 4.01786,-0.407163 8.92858,-0.407163 4.91071,0 8.92857,0.145415 8.92857,0.323144 0,0.884735 -14.39514,54.591708 -15.08586,56.283999 l -0.80174,1.964286 h -8.4149 -8.4149 l -0.73296,-1.964286 c -0.40313,-1.080357 -3.15376,-8.685258 -6.11251,-16.899779 -2.95875,-8.214521 -5.63753,-15.19348 -5.95285,-15.508799 -0.31532,-0.315318 -2.26694,5.602082 -4.33694,13.149779 -2.07,7.547697 -4.25986,15.410585 -4.86636,17.473085 l -1.10273,3.75 h -8.87484 c -4.88116,0 -8.87484,-0.195092 -8.87484,-0.433537 z"
       id="path885"
       transform="scale(0.26458333)" />
    <path
       style="fill:#000000;fill-opacity:1;stroke-width:0.269966"
       d="m 583.19643,95.376908 c 0.58938,-2.258929 3.29101,-12.276691 6.00362,-22.261693 5.1451,-18.938861 5.73678,-23.179579 3.8606,-27.669909 -0.58929,-1.410359 -1.07143,-2.846464 -1.07143,-3.191344 0,-0.348912 12.07365,-0.627054 27.21928,-0.627054 25.63024,0 27.19118,0.07297 26.73809,1.25 -0.26465,0.6875 -1.32166,4.223214 -2.34892,7.857143 l -1.86774,6.607143 h -15.24518 -15.24518 l -0.6909,1.817216 c -0.38,0.999469 -0.88903,2.606612 -1.13118,3.571429 l -0.44028,1.754212 h 9.006 c 4.95331,0 8.99283,0.241071 8.97673,0.535714 -0.0161,0.294643 -0.58998,2.946429 -1.27527,5.892857 l -1.24599,5.357143 -9.30902,0.198399 -9.30902,0.198397 -1.13575,3.551603 -1.13576,3.551601 h 15.60311 15.60311 l -1.32174,4.821429 c -0.72696,2.651785 -1.68315,6.1875 -2.12488,7.857142 l -0.80315,3.035715 h -24.19037 -24.19037 z"
       id="path887"
       transform="scale(0.26458333)" />
    <path
       style="fill:#000000;fill-opacity:1;stroke-width:0.269966"
       d="m 642.86672,99.349189 c 0.19228,-0.515112 1.10105,-4.070495 2.0195,-7.900853 l 1.66989,-6.964285 h 19.13554 19.13554 l 1.08101,-2.587232 c 1.98742,-4.756563 2.59395,-4.555353 -13.74041,-4.558295 -13.4741,-0.0024 -15.03071,-0.130276 -17.12369,-1.406415 -1.26624,-0.77206 -2.51338,-2.244944 -2.77143,-3.273075 -1.2853,-5.121058 2.01754,-19.119672 5.93602,-25.159007 1.25456,-1.933578 3.16493,-3.638301 5.20293,-4.642857 3.08263,-1.519467 4.16049,-1.596678 25.18474,-1.80408 17.69231,-0.174533 21.96089,-0.03561 21.94683,0.714286 -0.0234,1.248622 -1.24003,6.505359 -2.57116,11.109532 l -1.08418,3.75 h -16.71856 c -16.55651,0 -16.72855,0.01558 -17.74818,1.607143 -0.56628,0.883928 -1.13619,2.410714 -1.26646,3.392857 l -0.23686,1.785714 15,0.357143 c 15.48673,0.368731 17.40695,0.728244 18.9122,3.540841 1.88594,3.523914 -0.0912,16.029435 -3.65841,23.139345 -1.95602,3.898615 -3.91742,5.981195 -7.39665,7.853613 -2.73758,1.473287 -3.86981,1.546931 -27.05748,1.759916 -19.73425,0.18126 -24.13581,0.0494 -23.85073,-0.714291 z"
       id="path889"
       transform="scale(0.26458333)" />
    <path
       style="fill:#000000;fill-opacity:1;stroke-width:0.269966"
       d="m 709.08085,92.519765 1.92606,-7.678571 19.35646,-0.189937 19.35645,-0.189936 1.1347,-3.330163 c 0.62408,-1.831589 1.1347,-3.433618 1.1347,-3.560064 0,-0.126445 -6.90564,-0.2299 -15.34587,-0.2299 h -15.34588 l -2.22435,-1.987458 c -3.05361,-2.728398 -3.43357,-6.624463 -1.41395,-14.498267 2.11507,-8.24592 5.063,-14.33957 8.03294,-16.604851 3.89074,-2.967611 7.79496,-3.386749 29.57921,-3.175478 l 20.06781,0.194625 -1.79963,7.678571 -1.79964,7.678572 -16.48246,0.01094 c -9.06536,0.006 -16.86414,0.253628 -17.33064,0.550251 -0.92641,0.589062 -2.36611,3.946209 -2.36611,5.517374 0,0.80044 2.8741,1.0265 15.30122,1.2035 15.04475,0.214284 15.33191,0.24679 17.13192,1.939316 2.56642,2.413169 2.95657,5.642259 1.54973,12.826557 -1.61674,8.256189 -5.35867,15.999323 -8.83653,18.285317 -4.31883,2.838766 -7.85324,3.202287 -31.31356,3.220717 l -22.23865,0.0175 z"
       id="path891"
       transform="scale(0.26458333)" />
    <path
       style="fill:#ffffff;fill-opacity:1;stroke-width:0.0674916"
       d="m 33.490862,87.380276 c 0.577737,-2.453986 1.164571,-4.66793 3.085695,-11.641387 1.055588,-3.831661 1.620353,-6.19736 1.619959,-6.785714 -5e-4,-0.738879 -0.473506,-2.816147 -1.009902,-4.435076 -0.100223,-0.302488 0.443723,-0.31518 11.479436,-0.267857 11.175218,0.04792 11.609804,0.0623 12.296572,0.40682 1.134666,0.569211 1.5208,1.314489 1.517114,2.928193 -0.0069,2.999628 -1.147223,5.982332 -2.932895,7.671145 l -0.987464,0.933902 0.474716,0.717343 c 0.767743,1.160139 0.747545,2.124524 -0.109564,5.231286 -0.403688,1.463243 -0.95162,3.060322 -1.217627,3.549065 -0.606879,1.115035 -1.820843,2.323771 -2.786816,2.77481 -1.493273,0.697252 -2.321511,0.747827 -12.246771,0.747827 h -9.613371 z m 18.169027,-6.227262 c 0.157977,-0.699547 0.287233,-1.382583 0.287233,-1.517857 0,-0.202022 -0.761606,-0.245952 -4.264005,-0.245952 h -4.264005 l -0.297335,1.205357 c -0.163535,0.662946 -0.339434,1.345982 -0.390886,1.517857 -0.08731,0.291652 0.197842,0.3125 4.274107,0.3125 h 4.367659 z m 2.260581,-8.571485 c 0.163887,-0.552257 0.35096,-1.215204 0.415716,-1.473214 l 0.117739,-0.46911 h -4.274802 -4.274804 l -0.28217,1.240608 c -0.453458,1.993704 -0.861235,1.808391 3.859087,1.753754 l 4.141257,-0.04793 z"
       id="path893"
       transform="scale(0.26458333)" />
    <path
       style="fill:#ffffff;fill-opacity:1;stroke-width:0.0674916"
       d="m 63.06693,88.662537 c -0.969712,-0.48587 -1.767744,-1.399479 -2.010761,-2.301973 -0.277425,-1.030277 0.04421,-3.254392 0.883216,-6.107474 0.38522,-1.309959 0.991742,-3.546921 1.347827,-4.971028 1.612745,-6.449923 2.075501,-7.585919 3.74867,-9.202424 0.639696,-0.618031 1.580232,-1.331566 2.09008,-1.585634 l 0.926997,-0.461942 h 7.700385 c 8.621167,0 9.005987,0.04433 10.265887,1.182572 1.553262,1.403281 1.474266,2.772254 -0.611867,10.603142 -0.850332,3.191964 -1.714776,6.325893 -1.920985,6.964286 -0.922679,2.856468 -2.248486,4.605759 -4.230597,5.581914 l -1.175269,0.5788 -8.129196,0.04907 c -7.974618,0.04814 -8.143555,0.04188 -8.884387,-0.329312 z m 14.657588,-6.373838 c 0.111633,-0.180625 2.745454,-10.048242 2.895463,-10.847855 l 0.116887,-0.623068 H 76.527449 72.31803 l -0.175652,0.669643 c -0.874723,3.334723 -2.516685,10.298314 -2.516685,10.673309 0,0.225359 0.589026,0.264191 4.007318,0.264191 2.204026,0 4.045204,-0.0613 4.091507,-0.13622 z"
       id="path895"
       transform="scale(0.26458333)" />
    <path
       style="fill:#ffffff;fill-opacity:1;stroke-width:0.0337458"
       d="m 91.856902,89.41889 c 0,-0.05222 0.198575,-0.785481 0.441278,-1.629465 0.242703,-0.843983 0.882154,-3.141658 1.421004,-5.105944 0.538849,-1.964286 1.20168,-4.375 1.472956,-5.357143 0.459138,-1.662283 1.398184,-5.34474 1.531171,-6.004464 l 0.05849,-0.290179 h -3.767508 -3.767508 l 0.05649,-0.200893 c 0.190531,-0.677576 1.314081,-5.308408 1.413501,-5.825893 l 0.120075,-0.625 11.447529,-0.02266 11.44752,-0.02266 -0.002,0.692303 c -0.006,2.018054 -0.18175,4.463425 -0.376,5.223552 l -0.19965,0.78125 h -4.03811 -4.03811 l -0.0865,0.334821 c -0.0476,0.184152 -0.27282,1.058036 -0.50059,1.941965 -0.5946,2.307462 -2.98377,11.393664 -3.68006,13.995536 l -0.59137,2.209821 h -4.181347 c -2.894278,0 -4.181345,-0.02923 -4.181345,-0.09495 z"
       id="path899"
       transform="scale(0.26458333)" />
  </g>
</svg>
